<svg width="34" height="34" viewBox="0 0 34 34" fill="none" xmlns="http://www.w3.org/2000/svg">
<path d="M0.713327 0.713327C0.938871 0.487212 1.20681 0.307814 1.50179 0.185409C1.79678 0.0630047 2.11301 0 2.43238 0C2.75175 0 3.06799 0.0630047 3.36297 0.185409C3.65795 0.307814 3.92589 0.487212 4.15144 0.713327L17.0006 13.5674L29.8498 0.713327C30.0756 0.487578 30.3436 0.308503 30.6385 0.186329C30.9335 0.0641539 31.2496 0.00127124 31.5689 0.00127124C31.8881 0.00127124 32.2043 0.0641539 32.4992 0.186329C32.7942 0.308503 33.0622 0.487578 33.2879 0.713327C33.5137 0.939077 33.6928 1.20708 33.8149 1.50204C33.9371 1.79699 34 2.11312 34 2.43238C34 2.75164 33.9371 3.06777 33.8149 3.36273C33.6928 3.65768 33.5137 3.92569 33.2879 4.15144L20.4339 17.0006L33.2879 29.8498C33.5137 30.0756 33.6928 30.3436 33.8149 30.6385C33.9371 30.9335 34 31.2496 34 31.5689C34 31.8881 33.9371 32.2043 33.8149 32.4992C33.6928 32.7942 33.5137 33.0622 33.2879 33.2879C33.0622 33.5137 32.7942 33.6928 32.4992 33.8149C32.2043 33.9371 31.8881 34 31.5689 34C31.2496 34 30.9335 33.9371 30.6385 33.8149C30.3436 33.6928 30.0756 33.5137 29.8498 33.2879L17.0006 20.4339L4.15144 33.2879C3.92569 33.5137 3.65768 33.6928 3.36273 33.8149C3.06777 33.9371 2.75164 34 2.43238 34C2.11312 34 1.79699 33.9371 1.50204 33.8149C1.20708 33.6928 0.939077 33.5137 0.713327 33.2879C0.487578 33.0622 0.308503 32.7942 0.186329 32.4992C0.0641539 32.2043 0.00127124 31.8881 0.00127124 31.5689C0.00127124 31.2496 0.0641539 30.9335 0.186329 30.6385C0.308503 30.3436 0.487578 30.0756 0.713327 29.8498L13.5674 17.0006L0.713327 4.15144C0.487212 3.92589 0.307814 3.65795 0.185409 3.36297C0.0630047 3.06799 0 2.75175 0 2.43238C0 2.11301 0.0630047 1.79678 0.185409 1.50179C0.307814 1.20681 0.487212 0.938871 0.713327 0.713327Z" fill="#737373"/>
</svg>
